# File created by Blade
# Date/Time:  Fri Jan 16 19:49:56 2015
# Frame Rate: 120.000 fps
#------------------------------------------------------
:FULLY-SPECIFIED
:DEGREES
683
root 19.866415 35.425070 -14.726346 -147.333451 1.408849 -178.432526
Spine 39.817371 3.383946 -2.526466
Head -19.231979 2.876023 2.021953
LeftShoulder -20.636196 3.809994 11.786336
LeftArm -52.283824 7.479367 -99.400025
LeftForeArm 15.458823 -0.000000 -0.216317
LeftHand -1.782968 -0.000000 -40.731973
LeftHandThumb1 -26.253704 0.000000 33.147579
RightShoulder -24.147242 -36.754633 -0.430138
RightArm -14.385404 -19.994019 88.350895
RightForeArm -36.771253 -0.000000 7.910589
RightHand 2.930235 -0.000000 44.596837
RightHandThumb1 -24.326973 -0.000000 -32.862282
LeftUpLeg -32.608911 7.321014 2.067419
LeftLeg -9.606245 -0.000000 0.000000
LeftFoot -7.921933 28.089617 -10.154267
LeftToeBase 27.149177 -0.000000 -0.000000
RightUpLeg -33.504183 -0.417272 -4.505844
RightLeg -6.249970 -0.000000 0.000000
RightFoot -8.834653 -16.479787 16.454439
RightToeBase 26.842967 -0.000000 -0.000000
684
root 19.853747 35.434844 -14.825858 -147.684433 1.384242 -178.466601
Spine 38.837971 3.426268 -2.450720
Head -19.211589 2.847014 2.163500
LeftShoulder -20.547671 3.471453 11.737803
LeftArm -52.114749 7.443849 -99.556000
LeftForeArm 15.067347 -0.000000 -0.101195
LeftHand -1.740343 0.000000 -40.580846
LeftHandThumb1 -26.253704 0.000000 33.147579
RightShoulder -23.980847 -36.353006 -0.384484
RightArm -14.237879 -20.215382 88.529630
RightForeArm -36.835194 0.000000 8.042320
RightHand 2.954843 -0.000000 44.495042
RightHandThumb1 -24.326973 -0.000000 -32.862282
LeftUpLeg -32.145121 7.280309 2.068061
LeftLeg -9.514478 -0.000000 0.000000
LeftFoot -8.140177 28.061451 -10.230520
LeftToeBase 27.111032 -0.000000 -0.000000
RightUpLeg -32.996098 -0.431305 -4.540991
RightLeg -6.223364 -0.000000 0.000000
RightFoot -8.993351 -16.463377 16.568035
RightToeBase 26.706096 -0.000000 -0.000000
685
root 19.842211 35.445408 -14.931596 -148.076220 1.327065 -178.486028
Spine 37.914930 3.426167 -2.365158
Head -19.174980 2.924218 2.303525
LeftShoulder -20.518091 3.169292 11.688059
LeftArm -51.911512 7.629238 -99.991654
LeftForeArm 14.460087 -0.000000 -0.017585
LeftHand -1.668058 -0.000000 -40.442209
LeftHandThumb1 -26.253704 0.000000 33.147579
RightShoulder -23.742528 -35.915201 -0.378249
RightArm -14.083957 -20.475752 88.718298
RightForeArm -36.713531 -0.000000 8.056736
RightHand 3.030994 -0.000000 44.395353
RightHandThumb1 -24.326973 -0.000000 -32.862282
LeftUpLeg -31.616091 7.196160 2.121981
LeftLeg -9.455716 -0.000000 0.000000
LeftFoot -8.337501 28.054843 -10.304587
LeftToeBase 27.148605 -0.000000 -0.000000
RightUpLeg -32.472626 -0.593204 -4.453297
RightLeg -6.118167 -0.000000 0.000000
RightFoot -9.194897 -16.290441 16.558734
RightToeBase 26.874391 -0.000000 -0.000000
686
root 19.831494 35.457578 -15.041295 -148.491054 1.288063 -178.524202
Spine 37.051393 3.472833 -2.327759
Head -19.240869 2.834798 2.554770
LeftShoulder -20.513498 2.713899 11.707981
LeftArm -51.856257 7.965379 -100.617682
LeftForeArm 13.625023 0.000000 0.107417
LeftHand -1.581576 -0.000000 -40.312911
LeftHandThumb1 -26.253704 0.000000 33.147579
RightShoulder -23.593183 -35.417035 -0.242403
RightArm -13.945122 -20.783343 88.830190
RightForeArm -36.499215 0.000000 8.158387
RightHand 3.040548 -0.000000 44.360062
RightHandThumb1 -24.326973 -0.000000 -32.862282
LeftUpLeg -31.069198 7.109385 2.161758
LeftLeg -9.363855 -0.000000 0.000000
LeftFoot -8.554523 28.046255 -10.410798
LeftToeBase 27.116333 -0.000000 -0.000000
RightUpLeg -31.847314 -0.516075 -4.553174
RightLeg -6.153077 -0.000000 0.000000
RightFoot -9.378119 -16.382090 16.676093
RightToeBase 26.902316 -0.000000 -0.000000
687
root 19.817903 35.467732 -15.152968 -148.923948 1.226836 -178.554201
Spine 36.158105 3.482955 -2.267689
Head -19.125497 2.803653 2.821216
LeftShoulder -20.449201 2.304661 11.664274
LeftArm -51.635278 7.752331 -100.516446
LeftForeArm 13.512896 -0.000000 0.113886
LeftHand -1.422523 -0.000000 -40.438206
LeftHandThumb1 -26.253704 0.000000 33.147579
RightShoulder -23.400707 -35.066646 -0.166814
RightArm -13.679464 -21.075641 88.958598
RightForeArm -36.175256 -0.000000 8.209989
RightHand 2.984710 -0.000000 44.303922
RightHandThumb1 -24.326973 -0.000000 -32.862282
LeftUpLeg -30.478090 6.955756 2.243386
LeftLeg -9.322264 -0.000000 0.000000
LeftFoot -8.773847 28.131807 -10.511481
LeftToeBase 27.113279 -0.000000 -0.000000
RightUpLeg -31.269908 -0.637539 -4.512431
RightLeg -6.054614 -0.000000 0.000000
RightFoot -9.566534 -16.230075 16.756135
RightToeBase 26.805444 -0.000000 -0.000000
